<svg width="940" height="529" viewBox="0 0 940 529" fill="none" xmlns="http://www.w3.org/2000/svg">
<rect x="5" y="5" width="930" height="519" rx="11" stroke="#E5E7EB" stroke-width="10"/>
<g clip-path="url(#clip0_34_43)">
<path d="M610 265C610 342.324 547.324 405 470 405C392.676 405 330 342.324 330 265C330 187.676 392.685 125 470 125C547.315 125 610 187.685 610 265Z" fill="#1A1918"/>
<path d="M472.362 210.523L508.587 299.939L453.865 256.832L472.362 210.523ZM536.675 320.541L480.99 186.425C479.397 182.558 476.177 180.51 472.358 180.51C468.539 180.51 465.078 182.558 463.486 186.425L402.275 333.53H423.201L447.412 272.879L519.665 331.255C522.57 333.604 524.67 334.668 527.396 334.668C532.856 334.668 537.624 330.573 537.624 324.666C537.624 323.704 537.283 322.173 536.671 320.536L536.675 320.541Z" fill="white"/>
</g>
<defs>
<clipPath id="clip0_34_43">
<rect width="280" height="280" fill="white" transform="translate(330 125)"/>
</clipPath>
</defs>
</svg>
