<svg width="1584" height="396" viewBox="0 0 1584 396" fill="none" xmlns="http://www.w3.org/2000/svg">
<rect width="1584" height="396" fill="url(#paint0_linear_1_2)"/>
<g clip-path="url(#clip0_1_2)">
<path d="M835.048 199.01C832.106 197.025 824.376 196.177 818.755 197.695C818.452 192.083 815.566 187.354 810.285 183.228L808.33 181.913L807.028 183.885C804.467 187.782 803.388 192.974 803.77 197.693C804.072 200.601 805.081 203.87 807.028 206.241C799.713 210.495 792.971 209.529 763.111 209.529H717.009C716.874 216.288 717.958 229.29 726.206 239.874C727.117 241.043 728.117 242.174 729.2 243.263C735.906 249.995 746.037 254.931 761.188 254.945C784.301 254.966 804.103 242.443 816.148 212.162C820.112 212.227 830.575 212.874 835.696 202.955C835.821 202.788 836.998 200.324 836.998 200.324L835.047 199.009L835.048 199.01ZM747.096 192.829H734.132V205.825H747.096V192.829ZM763.844 192.829H750.88V205.825H763.844V192.829ZM780.592 192.829H767.628V205.825H780.592V192.829ZM797.34 192.829H784.377V205.825H797.34V192.829ZM730.348 192.829H717.384V205.825H730.348V192.829ZM747.096 176.415H734.132V189.411H747.096V176.415ZM763.844 176.415H750.88V189.411H763.844V176.415ZM780.592 176.415H767.628V189.411H780.592V176.415ZM780.592 160H767.628V172.995H780.592V160Z" fill="#1D63ED"/>
</g>
<g clip-path="url(#clip1_1_2)">
<path d="M625.48 30.0128C624.154 30.0796 622.855 30.4083 621.659 30.9797L569.511 55.8926C568.161 56.5371 566.976 57.4748 566.041 58.6362C565.107 59.7976 564.449 61.1527 564.116 62.6009L551.251 118.562C550.953 119.851 550.92 121.186 551.153 122.489C551.385 123.791 551.879 125.034 552.604 126.143C552.78 126.415 552.97 126.677 553.171 126.93L589.266 171.801C590.2 172.963 591.386 173.9 592.736 174.544C594.085 175.188 595.564 175.523 597.062 175.522L654.945 175.509C656.442 175.51 657.921 175.177 659.271 174.534C660.62 173.891 661.807 172.955 662.741 171.795L698.822 126.917C699.757 125.755 700.416 124.4 700.75 122.951C701.083 121.502 701.083 119.997 700.75 118.548L687.865 62.5876C687.531 61.1394 686.873 59.7842 685.939 58.6229C685.005 57.4615 683.819 56.5237 682.469 55.8793L630.315 30.9797C628.811 30.261 627.148 29.9285 625.48 30.0128Z" fill="#326CE5"/>
<path d="M625.997 49.057C624.273 49.0571 622.875 50.6095 622.875 52.5245C622.875 52.5539 622.882 52.582 622.882 52.6112C622.88 52.8714 622.867 53.1848 622.875 53.4114C622.917 54.5159 623.157 55.3612 623.302 56.3788C623.565 58.5567 623.785 60.3621 623.649 62.0402C623.517 62.673 623.051 63.2517 622.635 63.6539L622.562 64.9742C620.689 65.1294 618.803 65.4136 616.92 65.8411C608.815 67.681 601.838 71.855 596.525 77.4907C596.18 77.2556 595.577 76.823 595.398 76.6905C594.841 76.7658 594.277 76.9377 593.544 76.5105C592.147 75.5704 590.875 74.2727 589.335 72.7095C588.63 71.9618 588.119 71.2497 587.281 70.529C587.091 70.3653 586.801 70.1439 586.588 69.9755C585.933 69.4532 585.16 69.1808 584.414 69.1553C583.454 69.1224 582.53 69.4975 581.926 70.2556C580.851 71.6032 581.195 73.6629 582.693 74.8567C582.708 74.8688 582.724 74.8782 582.74 74.8901C582.945 75.0568 583.197 75.2705 583.386 75.4102C584.276 76.0667 585.088 76.4027 585.974 76.9239C587.841 78.0766 589.389 79.0323 590.616 80.1847C591.095 80.6956 591.179 81.5958 591.243 81.9852L592.243 82.8787C586.888 90.937 584.409 100.891 585.874 111.032L584.567 111.412C584.222 111.857 583.736 112.557 583.226 112.766C581.62 113.272 579.813 113.458 577.631 113.686C576.606 113.772 575.722 113.721 574.636 113.926C574.397 113.972 574.064 114.058 573.803 114.12C573.794 114.122 573.785 114.124 573.776 114.126C573.762 114.13 573.743 114.137 573.729 114.14C571.89 114.584 570.708 116.275 571.088 117.941C571.469 119.607 573.266 120.62 575.117 120.221C575.13 120.218 575.149 120.218 575.163 120.215C575.184 120.21 575.202 120.2 575.223 120.195C575.481 120.138 575.805 120.075 576.03 120.015C577.098 119.729 577.871 119.309 578.831 118.941C580.897 118.2 582.607 117.582 584.273 117.341C584.969 117.286 585.703 117.77 586.068 117.974L587.428 117.741C590.559 127.446 597.12 135.291 605.429 140.213L604.862 141.573C605.066 142.102 605.291 142.816 605.139 143.338C604.533 144.909 603.496 146.567 602.314 148.415C601.742 149.269 601.156 149.932 600.64 150.909C600.516 151.143 600.359 151.502 600.24 151.749C599.438 153.465 600.026 155.442 601.567 156.184C603.118 156.93 605.042 156.143 605.875 154.423C605.877 154.421 605.881 154.419 605.882 154.417C605.883 154.415 605.881 154.412 605.882 154.41C606.001 154.166 606.169 153.846 606.269 153.616C606.711 152.603 606.858 151.735 607.169 150.756C607.995 148.681 608.449 146.505 609.586 145.149C609.897 144.778 610.405 144.635 610.931 144.494L611.638 143.214C618.881 145.993 626.988 146.739 635.087 144.901C636.935 144.481 638.718 143.939 640.442 143.287C640.641 143.639 641.01 144.317 641.109 144.487C641.644 144.661 642.228 144.751 642.703 145.454C643.554 146.907 644.136 148.626 644.844 150.702C645.155 151.682 645.309 152.55 645.751 153.563C645.852 153.794 646.019 154.119 646.138 154.363C646.969 156.088 648.9 156.878 650.453 156.13C651.994 155.388 652.583 153.412 651.78 151.696C651.661 151.449 651.497 151.09 651.373 150.856C650.857 149.878 650.272 149.222 649.699 148.368C648.518 146.52 647.538 144.985 646.932 143.414C646.678 142.604 646.974 142.1 647.172 141.573C647.054 141.438 646.801 140.673 646.652 140.313C655.286 135.216 661.655 127.079 664.645 117.681C665.049 117.744 665.751 117.868 665.979 117.914C666.449 117.605 666.88 117.201 667.727 117.267C669.393 117.508 671.104 118.127 673.169 118.868C674.129 119.235 674.902 119.662 675.97 119.948C676.196 120.008 676.519 120.065 676.777 120.121C676.798 120.126 676.816 120.137 676.837 120.141C676.851 120.144 676.87 120.145 676.884 120.148C678.734 120.546 680.532 119.534 680.912 117.867C681.292 116.202 680.111 114.51 678.271 114.066C678.003 114.006 677.624 113.902 677.364 113.853C676.278 113.647 675.394 113.698 674.369 113.613C672.187 113.384 670.38 113.198 668.774 112.693C668.119 112.439 667.653 111.66 667.427 111.339L666.166 110.972C666.82 106.245 666.643 101.325 665.512 96.4021C664.371 91.4334 662.354 86.8891 659.663 82.8854C659.987 82.5915 660.597 82.0508 660.771 81.8918C660.821 81.3318 660.778 80.7447 661.357 80.1247C662.585 78.9723 664.133 78.0167 665.999 76.8639C666.885 76.3427 667.704 76.0067 668.594 75.3502C668.795 75.2017 669.069 74.9666 669.281 74.7967C670.778 73.6025 671.122 71.5429 670.048 70.1956C668.973 68.8482 666.89 68.7213 665.392 69.9155C665.179 70.0842 664.89 70.3044 664.699 70.469C663.861 71.1898 663.343 71.9017 662.638 72.6495C661.099 74.2128 659.826 75.5169 658.43 76.4571C657.824 76.8094 656.938 76.6875 656.535 76.6638L655.348 77.5107C648.579 70.4133 639.362 65.8757 629.438 64.9942C629.41 64.5784 629.374 63.8268 629.365 63.6006C628.958 63.2119 628.468 62.88 628.344 62.0402C628.209 60.3621 628.435 58.5567 628.698 56.3788C628.843 55.3612 629.084 54.5159 629.125 53.4114C629.134 53.1603 629.119 52.796 629.118 52.5245C629.118 50.6095 627.721 49.0568 625.997 49.057ZM622.089 73.263L621.161 89.6337L621.095 89.6671C621.033 91.1316 619.827 92.3011 618.347 92.3011C617.741 92.3011 617.181 92.1064 616.726 91.7743L616.7 91.7876L603.274 82.2719C607.401 78.2152 612.678 75.2172 618.761 73.8365C619.872 73.5842 620.982 73.3971 622.089 73.263ZM629.912 73.263C637.013 74.1362 643.58 77.3512 648.612 82.2786L635.274 91.7343L635.227 91.7143C634.043 92.5788 632.375 92.3643 631.452 91.2075C631.074 90.7335 630.876 90.1763 630.852 89.6137L630.839 89.6071L629.912 73.263ZM598.406 88.3868L610.664 99.3495L610.651 99.4162C611.757 100.378 611.92 102.047 610.997 103.204C610.619 103.678 610.113 103.996 609.57 104.144L609.557 104.197L593.844 108.732C593.044 101.42 594.768 94.3125 598.406 88.3868ZM653.501 88.3934C655.322 91.3451 656.702 94.6418 657.523 98.2159C658.334 101.747 658.537 105.272 658.203 108.678L642.41 104.131L642.397 104.064C640.982 103.678 640.113 102.239 640.442 100.797C640.577 100.206 640.891 99.7055 641.316 99.3361L641.31 99.3028L653.501 88.3934ZM623.482 100.196H628.504L631.626 104.097L630.505 108.965L625.997 111.132L621.475 108.959L620.354 104.091L623.482 100.196ZM639.582 113.546C639.796 113.536 640.008 113.555 640.216 113.593L640.242 113.56L656.496 116.307C654.117 122.989 649.565 128.777 643.484 132.651L637.175 117.414L637.195 117.387C636.615 116.041 637.195 114.462 638.528 113.82C638.87 113.655 639.226 113.564 639.582 113.546ZM612.285 113.613C613.525 113.63 614.637 114.491 614.926 115.754C615.061 116.345 614.995 116.93 614.772 117.447L614.819 117.507L608.576 132.591C602.74 128.846 598.091 123.24 595.605 116.36L611.718 113.626L611.744 113.66C611.925 113.627 612.107 113.611 612.285 113.613ZM625.897 120.221C626.329 120.205 626.767 120.294 627.184 120.495C627.73 120.758 628.152 121.172 628.418 121.668H628.478L636.421 136.019C635.39 136.364 634.33 136.659 633.246 136.905C627.171 138.285 621.116 137.867 615.633 135.999L623.556 121.675H623.569C624.045 120.786 624.946 120.256 625.897 120.221Z" fill="white"/>
</g>
<g clip-path="url(#clip2_1_2)">
<path fill-rule="evenodd" clip-rule="evenodd" d="M1250.49 180V132.662L1209.49 108.982V156.321L1250.49 180ZM1250.49 127.488L1209.49 103.809V56.4504L1250.49 80.1295V127.488Z" fill="#5C4EE5"/>
<path fill-rule="evenodd" clip-rule="evenodd" d="M1296.03 103.789V56.431L1255.01 80.1102V127.468L1296.03 103.789Z" fill="#4040B2"/>
<path fill-rule="evenodd" clip-rule="evenodd" d="M1204.99 101.038V53.6795L1163.99 30.0003V77.3586L1204.99 101.038Z" fill="#5C4EE5"/>
</g>
<path d="M927.731 312.195L911.859 302.765C910.92 302.211 909.853 301.912 908.787 301.912C907.72 301.912 906.653 302.211 905.715 302.765L889.843 312.195C887.965 313.304 886.771 315.395 886.771 317.656V336.515C886.771 338.776 887.923 340.824 889.843 341.976L905.715 351.405C906.653 351.96 907.72 352.259 908.787 352.259C909.853 352.259 910.92 351.96 911.859 351.405L927.731 341.976C929.608 340.867 930.803 338.776 930.803 336.515V317.613C930.803 315.395 929.651 313.304 927.731 312.195ZM915.443 341.635L915.485 343C915.485 343.171 915.4 343.341 915.272 343.427L914.461 343.896C914.333 343.981 914.248 343.896 914.205 343.725V342.403C913.523 342.701 912.84 342.744 912.371 342.573C912.285 342.531 912.243 342.403 912.285 342.275L912.584 341.037C912.627 340.952 912.669 340.824 912.712 340.781C912.755 340.739 912.755 340.739 912.797 340.739C912.84 340.696 912.883 340.696 912.925 340.739C913.395 340.909 914.035 340.824 914.589 340.525C915.357 340.141 915.827 339.373 915.827 338.605C915.827 337.923 915.443 337.624 914.547 337.624C913.395 337.624 912.328 337.411 912.285 335.704C912.285 334.296 913.011 332.845 914.163 331.949V330.584C914.163 330.413 914.248 330.243 914.376 330.157L915.144 329.645C915.272 329.56 915.357 329.645 915.4 329.816V331.181C915.955 330.968 916.467 330.883 916.936 331.011C917.021 331.053 917.064 331.181 917.021 331.309L916.723 332.504C916.68 332.589 916.637 332.675 916.595 332.76C916.552 332.803 916.552 332.803 916.509 332.803C916.467 332.803 916.424 332.845 916.381 332.803C916.168 332.76 915.699 332.632 914.931 333.059C914.12 333.485 913.821 334.168 913.864 334.68C913.864 335.32 914.205 335.491 915.272 335.491C916.723 335.533 917.363 336.173 917.405 337.624C917.405 339.117 916.637 340.653 915.443 341.635ZM923.763 339.331C923.763 339.459 923.763 339.587 923.635 339.629L919.624 342.061C919.539 342.104 919.453 342.061 919.453 341.933V340.909C919.453 340.781 919.539 340.696 919.624 340.653L923.592 338.307C923.677 338.264 923.763 338.307 923.763 338.435V339.331ZM926.536 316.163L911.517 325.421C909.64 326.531 908.275 327.725 908.275 329.987V348.504C908.275 349.869 908.829 350.723 909.64 350.979C909.384 351.021 909.085 351.064 908.787 351.064C907.891 351.064 907.037 350.808 906.269 350.381L890.397 340.952C888.861 340.013 887.88 338.307 887.88 336.472V317.613C887.88 315.779 888.861 314.029 890.397 313.133L906.269 303.704C907.037 303.235 907.891 303.021 908.787 303.021C909.683 303.021 910.536 303.277 911.304 303.704L927.176 313.133C928.499 313.901 929.352 315.267 929.608 316.76C929.096 315.651 927.901 315.352 926.536 316.163Z" fill="#2A3238"/>
<g clip-path="url(#clip3_1_2)">
<path d="M1053.11 186.211C1053.11 187.671 1053.26 188.855 1053.54 189.724C1053.86 190.592 1054.25 191.539 1054.8 192.566C1055 192.882 1055.08 193.197 1055.08 193.474C1055.08 193.868 1054.84 194.263 1054.33 194.658L1051.84 196.316C1051.49 196.553 1051.13 196.671 1050.82 196.671C1050.42 196.671 1050.03 196.474 1049.63 196.118C1049.08 195.526 1048.61 194.895 1048.21 194.263C1047.82 193.592 1047.42 192.842 1046.99 191.934C1043.91 195.566 1040.04 197.382 1035.38 197.382C1032.07 197.382 1029.42 196.434 1027.49 194.539C1025.55 192.645 1024.57 190.118 1024.57 186.961C1024.57 183.605 1025.75 180.882 1028.16 178.829C1030.57 176.776 1033.76 175.75 1037.83 175.75C1039.17 175.75 1040.55 175.868 1042.01 176.066C1043.47 176.263 1044.97 176.579 1046.55 176.934V174.053C1046.55 171.053 1045.92 168.961 1044.7 167.737C1043.43 166.513 1041.3 165.921 1038.26 165.921C1036.88 165.921 1035.46 166.079 1034 166.434C1032.54 166.789 1031.12 167.224 1029.74 167.776C1029.11 168.053 1028.63 168.211 1028.36 168.289C1028.08 168.368 1027.88 168.408 1027.72 168.408C1027.17 168.408 1026.89 168.013 1026.89 167.184V165.25C1026.89 164.618 1026.97 164.145 1027.17 163.868C1027.37 163.592 1027.72 163.316 1028.28 163.039C1029.66 162.329 1031.32 161.737 1033.25 161.263C1035.18 160.75 1037.24 160.513 1039.41 160.513C1044.11 160.513 1047.54 161.579 1049.75 163.711C1051.92 165.842 1053.03 169.079 1053.03 173.421V186.211H1053.11ZM1037.08 192.211C1038.38 192.211 1039.72 191.974 1041.14 191.5C1042.57 191.026 1043.83 190.158 1044.89 188.974C1045.53 188.224 1046 187.395 1046.24 186.447C1046.47 185.5 1046.63 184.355 1046.63 183.013V181.355C1045.49 181.079 1044.26 180.842 1043 180.684C1041.74 180.526 1040.51 180.447 1039.29 180.447C1036.64 180.447 1034.71 180.961 1033.41 182.026C1032.11 183.092 1031.47 184.592 1031.47 186.566C1031.47 188.421 1031.95 189.803 1032.93 190.75C1033.88 191.737 1035.26 192.211 1037.08 192.211ZM1068.78 196.474C1068.07 196.474 1067.59 196.355 1067.28 196.079C1066.96 195.842 1066.68 195.289 1066.45 194.539L1057.17 164.026C1056.93 163.237 1056.82 162.724 1056.82 162.447C1056.82 161.816 1057.13 161.461 1057.76 161.461H1061.63C1062.38 161.461 1062.89 161.579 1063.17 161.855C1063.49 162.092 1063.72 162.645 1063.96 163.395L1070.59 189.526L1076.75 163.395C1076.95 162.605 1077.18 162.092 1077.5 161.855C1077.82 161.618 1078.37 161.461 1079.08 161.461H1082.24C1082.99 161.461 1083.5 161.579 1083.82 161.855C1084.13 162.092 1084.41 162.645 1084.57 163.395L1090.8 189.842L1097.63 163.395C1097.87 162.605 1098.14 162.092 1098.42 161.855C1098.74 161.618 1099.25 161.461 1099.96 161.461H1103.63C1104.26 161.461 1104.62 161.776 1104.62 162.447C1104.62 162.645 1104.58 162.842 1104.54 163.079C1104.5 163.316 1104.42 163.632 1104.26 164.066L1094.75 194.579C1094.51 195.368 1094.24 195.882 1093.92 196.118C1093.61 196.355 1093.09 196.513 1092.42 196.513H1089.03C1088.28 196.513 1087.76 196.395 1087.45 196.118C1087.13 195.842 1086.86 195.329 1086.7 194.539L1080.58 169.079L1074.5 194.5C1074.3 195.289 1074.07 195.803 1073.75 196.079C1073.43 196.355 1072.88 196.474 1072.17 196.474H1068.78ZM1119.5 197.539C1117.45 197.539 1115.39 197.303 1113.42 196.829C1111.45 196.355 1109.91 195.842 1108.88 195.25C1108.25 194.895 1107.82 194.5 1107.66 194.145C1107.5 193.789 1107.42 193.395 1107.42 193.039V191.026C1107.42 190.197 1107.74 189.803 1108.33 189.803C1108.57 189.803 1108.8 189.842 1109.04 189.921C1109.28 190 1109.63 190.158 1110.03 190.316C1111.37 190.908 1112.83 191.382 1114.37 191.697C1115.95 192.013 1117.49 192.171 1119.07 192.171C1121.55 192.171 1123.49 191.737 1124.83 190.868C1126.17 190 1126.88 188.737 1126.88 187.118C1126.88 186.013 1126.53 185.105 1125.82 184.355C1125.11 183.605 1123.76 182.934 1121.83 182.303L1116.11 180.526C1113.22 179.618 1111.09 178.276 1109.79 176.5C1108.49 174.763 1107.82 172.829 1107.82 170.776C1107.82 169.118 1108.17 167.658 1108.88 166.395C1109.59 165.132 1110.54 164.026 1111.72 163.158C1112.91 162.25 1114.25 161.579 1115.83 161.105C1117.41 160.632 1119.07 160.434 1120.8 160.434C1121.67 160.434 1122.58 160.474 1123.45 160.592C1124.36 160.711 1125.18 160.868 1126.01 161.026C1126.8 161.224 1127.55 161.421 1128.26 161.658C1128.97 161.895 1129.53 162.132 1129.92 162.368C1130.47 162.684 1130.87 163 1131.11 163.355C1131.34 163.671 1131.46 164.105 1131.46 164.658V166.513C1131.46 167.342 1131.14 167.776 1130.55 167.776C1130.24 167.776 1129.72 167.618 1129.05 167.303C1126.8 166.276 1124.28 165.763 1121.47 165.763C1119.22 165.763 1117.45 166.118 1116.22 166.868C1115 167.618 1114.37 168.763 1114.37 170.382C1114.37 171.487 1114.76 172.434 1115.55 173.184C1116.34 173.934 1117.8 174.684 1119.89 175.355L1125.5 177.132C1128.34 178.039 1130.39 179.303 1131.62 180.921C1132.84 182.539 1133.43 184.395 1133.43 186.447C1133.43 188.145 1133.08 189.684 1132.41 191.026C1131.7 192.368 1130.75 193.553 1129.53 194.5C1128.3 195.487 1126.84 196.197 1125.14 196.711C1123.37 197.263 1121.51 197.539 1119.5 197.539Z" fill="#252F3E"/>
<path fill-rule="evenodd" clip-rule="evenodd" d="M1126.96 216.724C1113.97 226.316 1095.11 231.408 1078.88 231.408C1056.14 231.408 1035.66 223 1020.18 209.026C1018.96 207.921 1020.07 206.421 1021.53 207.289C1038.26 217 1058.91 222.882 1080.26 222.882C1094.67 222.882 1110.5 219.882 1125.07 213.724C1127.24 212.737 1129.09 215.145 1126.96 216.724Z" fill="#FF9900"/>
<path fill-rule="evenodd" clip-rule="evenodd" d="M1132.37 210.566C1130.71 208.434 1121.39 209.539 1117.17 210.053C1115.91 210.211 1115.71 209.105 1116.86 208.276C1124.28 203.066 1136.47 204.566 1137.89 206.303C1139.32 208.079 1137.5 220.276 1130.55 226.118C1129.49 227.026 1128.46 226.553 1128.93 225.368C1130.51 221.461 1134.03 212.658 1132.37 210.566Z" fill="#FF9900"/>
</g>
<g clip-path="url(#clip4_1_2)">
<path d="M1003 105C1003 146.423 969.423 180 928 180C886.577 180 853 146.423 853 105C853 63.5766 886.581 30 928 30C969.419 30 1003 63.5813 1003 105Z" fill="#1A1918"/>
<path d="M929.266 75.8156L948.672 123.717L919.356 100.624L929.266 75.8156ZM963.719 134.754L933.887 62.9062C933.034 60.8344 931.309 59.7375 929.263 59.7375C927.217 59.7375 925.363 60.8344 924.51 62.9062L891.719 141.713H902.929L915.899 109.221L954.606 140.494C956.162 141.752 957.288 142.322 958.748 142.322C961.673 142.322 964.227 140.128 964.227 136.964C964.227 136.448 964.045 135.628 963.716 134.752L963.719 134.754Z" fill="white"/>
</g>
<path d="M738.657 317.87C738.481 317.87 738.306 317.694 738.481 317.519L739.711 315.763C739.886 315.587 740.062 315.412 740.413 315.412H762.536C762.712 315.412 762.888 315.587 762.712 315.763L761.658 317.343C761.483 317.519 761.307 317.694 760.956 317.694L738.657 317.87ZM729.351 323.488C729.176 323.488 729 323.313 729.176 323.137L730.405 321.381C730.58 321.206 730.756 321.03 731.107 321.03H759.376C759.551 321.03 759.727 321.206 759.727 321.381L759.2 323.137C759.2 323.313 758.849 323.488 758.674 323.488H729.351ZM744.276 329.283C744.1 329.283 743.925 329.107 744.1 328.931L744.978 327.351C745.154 327.176 745.329 327 745.68 327H757.971C758.147 327 758.322 327.176 758.322 327.351L758.147 328.756C758.147 328.931 757.971 329.107 757.796 329.107L744.276 329.283ZM808.539 316.641L798.18 319.274C797.302 319.45 797.126 319.626 796.424 318.572C795.546 317.519 794.844 316.816 793.439 316.289C789.576 314.358 785.713 314.885 782.202 317.167C777.988 319.801 775.881 323.84 775.881 328.931C775.881 333.848 779.392 337.886 784.309 338.588C788.523 339.115 792.034 337.711 794.844 334.55C795.37 333.848 795.897 333.145 796.599 332.267H784.66C783.431 332.267 783.08 331.39 783.431 330.336C784.309 328.405 785.713 325.244 786.591 323.664C786.767 323.313 787.294 322.61 788.171 322.61H810.646C810.47 324.366 810.47 325.947 810.295 327.702C809.593 332.092 808.012 336.306 805.203 339.818C800.813 345.612 795.019 349.299 787.645 350.353C781.499 351.23 775.881 350.001 770.964 346.314C766.399 342.802 763.765 338.237 763.063 332.619C762.185 325.946 764.292 319.801 768.331 314.534C772.72 308.739 778.514 305.052 785.713 303.823C791.508 302.77 797.126 303.472 802.043 306.808C805.379 308.915 807.661 311.9 809.241 315.587C809.417 316.289 809.241 316.465 808.539 316.641Z" fill="#00ACD7"/>
<path d="M828.907 350.879C823.288 350.704 818.196 349.123 813.807 345.436C810.119 342.276 807.837 338.237 807.134 333.497C806.081 326.473 808.012 320.328 812.226 314.885C816.791 308.915 822.235 305.93 829.609 304.525C835.93 303.472 841.9 303.999 847.167 307.686C852.084 311.022 855.069 315.587 855.946 321.557C857 329.985 854.542 336.657 848.923 342.451C844.885 346.665 839.793 349.123 834.174 350.353C832.243 350.704 830.487 350.704 828.907 350.879ZM843.656 325.946C843.656 325.069 843.656 324.542 843.48 323.84C842.427 317.694 836.808 314.182 830.838 315.587C825.044 316.816 821.357 320.503 819.952 326.298C818.898 331.038 821.181 335.955 825.571 338.062C828.907 339.466 832.418 339.291 835.579 337.711C840.671 335.252 843.305 331.214 843.656 325.946Z" fill="#00ACD7"/>
<g clip-path="url(#clip5_1_2)">
<path fill-rule="evenodd" clip-rule="evenodd" d="M1380.99 159.989C1375.65 173.086 1372.42 181.653 1366.48 194.361C1370.12 198.228 1374.6 202.728 1381.85 207.812C1374.04 204.597 1368.73 201.368 1364.72 198.017C1357.11 213.899 1345.18 236.526 1320.98 280.011C1340.02 269.031 1354.75 262.263 1368.51 259.675C1367.92 257.136 1367.58 254.391 1367.61 251.528L1367.63 250.919C1367.93 238.731 1374.27 229.36 1381.78 229.998C1389.29 230.635 1395.13 241.034 1394.83 253.221C1394.78 255.423 1394.52 257.615 1394.06 259.767C1407.65 262.426 1422.24 269.179 1441 280.011L1430.84 261.213C1425.87 257.363 1420.69 252.351 1410.12 246.925C1417.39 248.813 1422.59 250.99 1426.62 253.426C1394.56 193.726 1391.96 185.794 1380.97 159.989H1380.99Z" fill="#1793D1"/>
</g>
<g clip-path="url(#clip6_1_2)">
<path d="M1045 327V359H1109V294.998H1045V327ZM1096.58 324.45C1098.2 324.856 1099.44 325.578 1100.58 326.756C1101.17 327.386 1102.04 328.534 1102.11 328.808C1102.13 328.888 1099.35 330.758 1097.66 331.805C1097.6 331.845 1097.36 331.582 1097.08 331.175C1096.26 329.975 1095.4 329.458 1094.08 329.367C1092.14 329.235 1090.88 330.251 1090.9 331.947C1090.9 332.445 1090.97 332.739 1091.17 333.147C1091.6 334.031 1092.39 334.559 1094.88 335.637C1099.46 337.607 1101.42 338.907 1102.64 340.757C1104 342.819 1104.31 346.111 1103.38 348.559C1102.37 351.221 1099.85 353.029 1096.3 353.629C1095.2 353.822 1092.6 353.792 1091.42 353.579C1088.85 353.122 1086.42 351.852 1084.91 350.186C1084.32 349.536 1083.18 347.839 1083.25 347.716C1083.28 347.676 1083.54 347.513 1083.84 347.34L1086.21 345.97L1088.05 344.903L1088.44 345.473C1088.98 346.296 1090.16 347.423 1090.87 347.799C1092.91 348.876 1095.71 348.723 1097.1 347.484C1097.69 346.946 1097.93 346.387 1097.93 345.564C1097.93 344.822 1097.84 344.497 1097.45 343.939C1096.95 343.229 1095.94 342.629 1093.05 341.379C1089.75 339.957 1088.33 339.073 1087.03 337.671C1086.28 336.858 1085.56 335.558 1085.27 334.471C1085.03 333.567 1084.96 331.301 1085.16 330.387C1085.84 327.187 1088.25 324.972 1091.72 324.312C1092.85 324.099 1095.47 324.18 1096.58 324.454L1096.58 324.45ZM1081.55 327.12L1081.57 329.74H1073.24V353.41H1067.35V329.74H1059.02V327.17L1059.09 324.53C1059.12 324.49 1064.19 324.47 1070.34 324.48L1081.52 324.51L1081.55 327.12Z" fill="#007ACC"/>
</g>
<path d="M1161 332.662C1164.16 332.662 1166.72 330.103 1166.72 326.947C1166.72 323.791 1164.16 321.232 1161 321.232C1157.84 321.232 1155.29 323.791 1155.29 326.947C1155.29 330.103 1157.84 332.662 1161 332.662Z" fill="#00D8FF"/>
<path fill-rule="evenodd" clip-rule="evenodd" d="M1161 315.327C1168.67 315.327 1175.8 316.428 1181.18 318.279C1187.65 320.508 1191.63 323.887 1191.63 326.947C1191.63 330.136 1187.41 333.726 1180.46 336.03C1175.2 337.772 1168.28 338.681 1161 338.681C1153.53 338.681 1146.46 337.827 1141.14 336.011C1134.42 333.711 1130.37 330.075 1130.37 326.947C1130.37 323.912 1134.17 320.559 1140.55 318.333C1145.95 316.452 1153.25 315.327 1161 315.327H1161Z" stroke="#00D8FF" stroke-width="2.73408"/>
<path fill-rule="evenodd" clip-rule="evenodd" d="M1150.88 321.171C1154.72 314.524 1159.23 308.899 1163.52 305.167C1168.69 300.671 1173.6 298.91 1176.25 300.439C1179.02 302.032 1180.02 307.481 1178.54 314.656C1177.42 320.08 1174.75 326.528 1171.12 332.837C1167.38 339.307 1163.11 345.006 1158.88 348.703C1153.53 353.382 1148.36 355.075 1145.65 353.512C1143.02 351.997 1142.01 347.028 1143.27 340.385C1144.34 334.772 1147.01 327.883 1150.88 321.171L1150.88 321.171Z" stroke="#00D8FF" stroke-width="2.73408"/>
<path fill-rule="evenodd" clip-rule="evenodd" d="M1150.89 332.854C1147.05 326.215 1144.43 319.493 1143.34 313.915C1142.03 307.193 1142.96 302.054 1145.6 300.521C1148.36 298.924 1153.58 300.777 1159.06 305.641C1163.2 309.318 1167.46 314.85 1171.11 321.154C1174.85 327.617 1177.65 334.165 1178.74 339.675C1180.12 346.649 1179.01 351.977 1176.3 353.544C1173.67 355.064 1168.87 353.454 1163.74 349.044C1159.41 345.318 1154.78 339.56 1150.89 332.854V332.854Z" stroke="#00D8FF" stroke-width="2.73408"/>
<path d="M990.312 295.854C991.912 294.948 993.952 294.944 995.512 295.854L1019.4 309.32C1020.89 310.16 1021.89 311.826 1021.88 313.548V340.548C1021.89 342.342 1020.79 344.044 1019.22 344.868L995.456 358.272C994.643 358.721 993.725 358.944 992.797 358.919C991.869 358.893 990.965 358.619 990.178 358.126L983.048 354.006C982.562 353.716 982.016 353.486 981.672 353.016C981.976 352.608 982.516 352.556 982.956 352.376C983.948 352.06 984.856 351.576 985.768 351.064C985.998 350.904 986.28 350.964 986.5 351.108L992.58 354.624C993.014 354.874 993.454 354.544 993.826 354.334L1017.16 341.168C1017.44 341.028 1017.6 340.724 1017.58 340.408V313.668C1017.61 313.308 1017.41 312.98 1017.08 312.834L993.38 299.488C993.243 299.394 993.081 299.343 992.915 299.342C992.749 299.342 992.587 299.392 992.45 299.486L968.784 312.86C968.464 313.006 968.244 313.33 968.284 313.69V340.43C968.256 340.746 968.424 341.044 968.714 341.18L975.038 344.75C976.226 345.39 977.684 345.75 978.992 345.28C979.564 345.064 980.057 344.679 980.404 344.175C980.751 343.671 980.936 343.074 980.934 342.462L980.94 315.882C980.912 315.488 981.284 315.162 981.666 315.202H984.706C985.106 315.192 985.42 315.616 985.366 316.012L985.36 342.76C985.362 345.136 984.386 347.72 982.188 348.886C979.48 350.286 976.132 349.992 973.456 348.646L966.656 344.886C965.056 344.086 963.982 342.358 963.992 340.566V313.566C963.999 312.688 964.24 311.829 964.691 311.076C965.142 310.323 965.786 309.704 966.556 309.284L990.312 295.854ZM997.2 314.57C1000.65 314.37 1004.35 314.438 1007.46 316.14C1009.87 317.444 1011.2 320.18 1011.24 322.856C1011.18 323.216 1010.8 323.416 1010.46 323.39C1009.46 323.388 1008.45 323.404 1007.45 323.384C1007.02 323.4 1006.78 323.008 1006.72 322.632C1006.43 321.352 1005.74 320.086 1004.53 319.468C1002.68 318.542 1000.54 318.588 998.524 318.608C997.052 318.688 995.47 318.814 994.224 319.678C993.264 320.334 992.976 321.678 993.318 322.722C993.638 323.488 994.524 323.734 995.246 323.962C999.41 325.05 1003.82 324.962 1007.91 326.376C1009.6 326.96 1011.25 328.096 1011.83 329.866C1012.59 332.238 1012.26 335.074 1010.57 336.978C1009.2 338.546 1007.21 339.378 1005.22 339.862C1002.57 340.452 999.83 340.466 997.144 340.202C994.618 339.914 991.99 339.25 990.04 337.53C988.372 336.082 987.56 333.826 987.64 331.65C987.66 331.282 988.026 331.026 988.38 331.056H991.38C991.784 331.028 992.08 331.376 992.1 331.756C992.286 332.956 992.744 334.256 993.808 334.956C995.86 336.28 998.434 336.188 1000.78 336.226C1002.73 336.14 1004.91 336.114 1006.5 334.826C1007.34 334.092 1007.59 332.866 1007.36 331.81C1007.12 330.918 1006.16 330.504 1005.36 330.21C1001.25 328.91 996.792 329.382 992.722 327.91C991.07 327.326 989.472 326.222 988.838 324.524C987.952 322.124 988.358 319.15 990.224 317.31C992.024 315.48 994.664 314.774 997.164 314.522L997.2 314.57Z" fill="#8CC84B"/>
<mask id="mask0_1_2" style="mask-type:luminance" maskUnits="userSpaceOnUse" x="1219" y="295" width="52" height="64">
<path d="M1270.68 324.532L1253.46 341.766L1270.68 359H1251L1233.76 341.766L1251 324.532H1270.68ZM1251 295L1219 326.997L1228.85 336.843L1270.68 295H1251Z" fill="white"/>
</mask>
<g mask="url(#mask0_1_2)">
<path d="M1233.77 341.766L1243.61 351.612L1270.68 324.532H1251L1233.77 341.766Z" fill="#39CEFD"/>
</g>
<mask id="mask1_1_2" style="mask-type:luminance" maskUnits="userSpaceOnUse" x="1219" y="295" width="52" height="64">
<path d="M1270.68 324.532L1253.46 341.766L1270.68 359H1251L1233.76 341.766L1251 324.532H1270.68ZM1251 295L1219 326.997L1228.85 336.843L1270.68 295H1251Z" fill="white"/>
</mask>
<g mask="url(#mask1_1_2)">
<path d="M1251 295H1270.68L1228.85 336.843L1219 326.997L1251 295Z" fill="#39CEFD"/>
</g>
<mask id="mask2_1_2" style="mask-type:luminance" maskUnits="userSpaceOnUse" x="1219" y="295" width="52" height="64">
<path d="M1270.68 324.532L1253.46 341.766L1270.68 359H1251L1233.76 341.766L1251 324.532H1270.68ZM1251 295L1219 326.997L1228.85 336.843L1270.68 295H1251Z" fill="white"/>
</mask>
<g mask="url(#mask2_1_2)">
<path d="M1243.61 351.612L1251 358.993H1270.68L1253.46 341.766L1243.61 351.612Z" fill="#03569B"/>
</g>
<mask id="mask3_1_2" style="mask-type:luminance" maskUnits="userSpaceOnUse" x="1219" y="295" width="52" height="64">
<path d="M1270.68 324.532L1253.46 341.766L1270.68 359H1251L1233.76 341.766L1251 324.532H1270.68ZM1251 295L1219 326.997L1228.85 336.843L1270.68 295H1251Z" fill="white"/>
</mask>
<g mask="url(#mask3_1_2)">
<path d="M1258.21 346.553L1253.46 341.766L1243.61 351.612L1258.21 346.553Z" fill="url(#paint1_linear_1_2)"/>
</g>
<mask id="mask4_1_2" style="mask-type:luminance" maskUnits="userSpaceOnUse" x="1219" y="295" width="52" height="64">
<path d="M1270.68 324.532L1253.46 341.766L1270.68 359H1251L1233.76 341.766L1251 324.532H1270.68ZM1251 295L1219 326.997L1228.85 336.843L1270.68 295H1251Z" fill="white"/>
</mask>
<g mask="url(#mask4_1_2)">
<path d="M1233.77 341.762L1243.61 331.916L1253.46 341.762L1243.61 351.609L1233.77 341.762Z" fill="#16B9FD"/>
</g>
<path d="M1270.68 324.532L1253.46 341.766L1270.68 359H1251L1233.76 341.766L1251 324.532H1270.68ZM1251 295L1219 326.997L1228.85 336.843L1270.68 295H1251Z" fill="url(#paint2_radial_1_2)"/>
<defs>
<linearGradient id="paint0_linear_1_2" x1="-122" y1="610.5" x2="1829" y2="-216.5" gradientUnits="userSpaceOnUse">
<stop stop-color="#BCBCBC"/>
<stop offset="1" stop-color="white"/>
</linearGradient>
<linearGradient id="paint1_linear_1_2" x1="1246.48" y1="353.512" x2="1253.82" y2="346.179" gradientUnits="userSpaceOnUse">
<stop stop-color="#1A237E" stop-opacity="0.4"/>
<stop offset="1" stop-color="#1A237E" stop-opacity="0"/>
</linearGradient>
<radialGradient id="paint2_radial_1_2" cx="0" cy="0" r="1" gradientUnits="userSpaceOnUse" gradientTransform="translate(1220.45 299.362) scale(78.2956)">
<stop stop-color="white" stop-opacity="0.1"/>
<stop offset="1" stop-color="white" stop-opacity="0"/>
</radialGradient>
<clipPath id="clip0_1_2">
<rect width="120" height="94.9451" fill="white" transform="translate(717 160)"/>
</clipPath>
<clipPath id="clip1_1_2">
<rect width="150" height="145.522" fill="white" transform="translate(551 30)"/>
</clipPath>
<clipPath id="clip2_1_2">
<rect width="150" height="150" fill="white" transform="translate(1155 30)"/>
</clipPath>
<clipPath id="clip3_1_2">
<rect width="120" height="71.8421" fill="white" transform="translate(1019 160)"/>
</clipPath>
<clipPath id="clip4_1_2">
<rect width="150" height="150" fill="white" transform="translate(853 30)"/>
</clipPath>
<clipPath id="clip5_1_2">
<rect width="120" height="120" fill="white" transform="translate(1321 160)"/>
</clipPath>
<clipPath id="clip6_1_2">
<rect width="64" height="64" fill="white" transform="translate(1045 295)"/>
</clipPath>
</defs>
</svg>
