<svg width="504" height="238" viewBox="0 0 504 238" fill="none" xmlns="http://www.w3.org/2000/svg">
<mask id="mask0_12_95" style="mask-type:alpha" maskUnits="userSpaceOnUse" x="0" y="0" width="504" height="238">
<path d="M337.77 145.981C331.242 145.981 326.357 144.275 323.114 140.861C319.872 137.405 318.25 132.072 318.25 124.861C318.25 117.352 319.872 111.912 323.114 108.541C326.357 105.171 331.242 103.485 337.77 103.485C344.341 103.485 349.226 105.171 352.426 108.541C355.669 111.912 357.29 117.352 357.29 124.861C357.29 132.072 355.669 137.405 352.426 140.861C349.226 144.275 344.341 145.981 337.77 145.981ZM337.77 140.093C342.08 140.093 345.237 138.92 347.242 136.573C349.29 134.184 350.314 130.28 350.314 124.861C350.314 119.144 349.29 115.155 347.242 112.893C345.237 110.589 342.08 109.437 337.77 109.437C333.504 109.437 330.346 110.589 328.298 112.893C326.293 115.155 325.29 119.144 325.29 124.861C325.29 130.28 326.293 134.184 328.298 136.573C330.346 138.92 333.504 140.093 337.77 140.093ZM364.093 159.165V115.005H370.109L370.493 118.013C371.858 116.776 373.351 115.859 374.973 115.261C376.594 114.664 378.514 114.365 380.733 114.365C385.085 114.365 388.477 115.56 390.909 117.949C393.341 120.296 394.557 124.2 394.557 129.661C394.557 135.123 393.298 139.219 390.781 141.949C388.263 144.637 384.829 145.981 380.477 145.981C376.807 145.981 373.671 145.128 371.069 143.421V159.165H364.093ZM378.685 140.733C384.573 140.733 387.517 137.021 387.517 129.597C387.517 126.013 386.855 123.475 385.533 121.981C384.21 120.445 381.991 119.677 378.877 119.677C375.762 119.677 373.159 120.744 371.069 122.877V138.045C372.05 138.856 373.138 139.517 374.333 140.029C375.57 140.499 377.021 140.733 378.685 140.733ZM411.142 145.981C409.052 145.981 407.046 145.832 405.126 145.533C403.249 145.235 401.692 144.872 400.454 144.445V138.557C401.905 139.112 403.505 139.539 405.254 139.837C407.004 140.136 408.668 140.285 410.246 140.285C412.636 140.285 414.342 140.072 415.366 139.645C416.39 139.219 416.902 138.387 416.902 137.149C416.902 136.253 416.582 135.549 415.942 135.037C415.345 134.525 414.428 134.056 413.19 133.629C411.996 133.203 410.46 132.691 408.582 132.093C406.79 131.496 405.233 130.856 403.91 130.173C402.588 129.448 401.564 128.531 400.838 127.421C400.113 126.312 399.75 124.861 399.75 123.069C399.75 120.296 400.753 118.163 402.758 116.669C404.764 115.133 407.985 114.365 412.422 114.365C414.172 114.365 415.836 114.493 417.414 114.749C418.993 115.005 420.337 115.325 421.446 115.709V121.533C420.252 121.064 418.929 120.701 417.478 120.445C416.07 120.189 414.748 120.061 413.51 120.061C411.292 120.061 409.606 120.253 408.454 120.637C407.345 121.021 406.79 121.789 406.79 122.941C406.79 124.136 407.366 124.989 408.518 125.501C409.713 125.971 411.612 126.632 414.214 127.485C416.604 128.211 418.502 128.979 419.91 129.789C421.318 130.6 422.321 131.581 422.918 132.733C423.558 133.843 423.878 135.293 423.878 137.085C423.878 140.072 422.79 142.312 420.614 143.805C418.438 145.256 415.281 145.981 411.142 145.981Z" fill="#2C2C2C"/>
<path d="M79.5304 145.341V104.125H96.2344C102.336 104.125 106.858 105.747 109.802 108.989C112.746 112.189 114.218 117.523 114.218 124.989C114.218 132.029 112.768 137.192 109.866 140.477C106.965 143.72 102.421 145.341 96.2344 145.341H79.5304ZM86.5064 139.965H95.1464C97.8344 139.965 100.074 139.581 101.866 138.813C103.658 138.003 105.002 136.509 105.898 134.333C106.794 132.157 107.242 129.043 107.242 124.989C107.242 120.936 106.837 117.8 106.026 115.581C105.216 113.363 103.914 111.805 102.122 110.909C100.373 110.013 98.0477 109.565 95.1464 109.565H86.5064V139.965ZM136.453 145.981C131.162 145.981 127.066 144.68 124.165 142.077C121.264 139.475 119.813 135.485 119.813 130.109C119.813 125.245 121.05 121.405 123.525 118.589C126 115.773 129.754 114.365 134.789 114.365C139.397 114.365 142.853 115.581 145.157 118.013C147.504 120.403 148.677 123.496 148.677 127.293V132.925H126.469C126.81 135.869 127.877 137.896 129.669 139.005C131.461 140.115 134.192 140.669 137.861 140.669C139.397 140.669 140.976 140.52 142.597 140.221C144.218 139.923 145.626 139.539 146.821 139.069V144.189C145.456 144.787 143.877 145.235 142.085 145.533C140.336 145.832 138.458 145.981 136.453 145.981ZM126.469 128.381H142.533V126.269C142.533 124.179 141.957 122.557 140.805 121.405C139.653 120.211 137.712 119.613 134.981 119.613C131.738 119.613 129.498 120.317 128.261 121.725C127.066 123.133 126.469 125.352 126.469 128.381ZM162.656 145.341L150.688 115.005H157.92L166.432 138.557L174.944 115.005H182.112L170.208 145.341H162.656Z" fill="#2C2C2C"/>
<path fill-rule="evenodd" clip-rule="evenodd" d="M119.092 -1.43051e-05C134.626 -1.43051e-05 148.865 2.30128 161.81 6.90386C174.899 11.3627 186.693 17.2598 197.193 24.5952C207.836 31.7867 217.185 39.4098 225.24 47.4644C229.679 51.5336 233.801 55.7086 237.606 59.9894L206.486 64.9344C206.21 64.9782 205.979 65.1308 205.828 65.3414C205.326 65.3536 204.902 65.742 204.857 66.2545L202.375 94.7955C198.945 90.8978 195.06 86.915 190.721 82.8469C181.228 73.3541 170.44 65.3712 158.358 58.899C146.421 52.4265 133.332 49.1903 119.092 49.1903C106.147 49.1903 94.3534 52.3546 83.71 58.6832C78.5214 61.7395 73.8419 65.3228 69.6718 69.4328L39.9225 62.7632L39.1471 30.1861C48.9795 21.4534 60.094 14.4838 72.4907 9.27708C87.0179 3.09235 102.551 -1.43051e-05 119.092 -1.43051e-05ZM38.239 63.5253C38.0503 63.3483 37.93 63.0986 37.9233 62.8196L37.1888 31.9643C36.2879 32.8007 35.3981 33.6525 34.5195 34.5195C23.7321 45.3069 15.2461 57.8921 9.06135 72.275C3.0204 86.5144 -2.95639e-05 101.833 -2.95639e-05 118.229C-2.95639e-05 140.379 5.32173 160.444 15.9653 178.423C26.6088 196.402 40.92 210.713 58.8988 221.356C76.8776 232 96.9424 237.322 119.092 237.322C122.127 237.322 125.112 237.237 128.048 237.067L143.225 209.958L120.01 188.127C119.705 188.13 119.399 188.131 119.092 188.131C106.147 188.131 94.3534 185.039 83.71 178.854C73.2102 172.525 64.7958 164.112 58.4672 153.612C52.2826 142.968 49.1903 131.174 49.1903 118.229C49.1903 105.572 52.2826 94.0656 58.4672 83.7095C61.2494 79.0938 64.4349 74.8948 68.0234 71.1128L39.0145 64.6093C38.5125 64.4967 38.184 64.0249 38.239 63.5253ZM122.853 188.055L144.946 208.832C145.321 209.184 145.363 209.757 145.062 210.16C145.134 210.408 145.11 210.684 144.974 210.928L130.428 236.909C141.62 236.077 152.081 233.985 161.81 230.634C174.899 226.031 186.693 220.206 197.193 213.158C207.836 205.966 217.185 198.487 225.24 190.72C230.418 185.543 235.164 180.436 239.479 175.402C243.938 170.224 248.109 165.262 251.993 160.516C255.444 165.262 259.328 170.224 263.643 175.402C267.958 180.436 272.704 185.543 277.882 190.72C285.937 198.487 295.214 205.966 305.713 213.158C316.357 220.206 328.223 226.031 341.312 230.634C354.544 235.092 369.071 237.322 384.893 237.322C398.714 237.322 411.768 235.176 424.057 230.884L397.402 214.066C396.967 213.791 396.816 213.237 397.035 212.785C396.917 212.554 396.887 212.279 396.975 212.014L405.894 184.966C399.286 187.076 392.286 188.131 384.893 188.131C370.222 188.131 356.917 184.895 344.98 178.423C333.185 171.95 322.326 163.968 312.401 154.475C305.929 148.002 300.248 141.746 295.358 135.705C290.467 129.664 286.08 123.839 282.197 118.229C284.354 115.64 287.95 110.966 292.985 104.206C298.162 97.3021 304.635 90.1824 312.401 82.8469C318.73 76.5184 325.634 70.8372 333.114 65.8028C333.743 65.3672 334.376 64.9398 335.013 64.5206L340.481 34.6921L311.128 21.3839C298.352 29.3826 287.27 38.0761 277.882 47.4644C271.841 53.0738 266.879 58.1798 262.995 62.7822C259.112 67.385 255.444 72.0592 251.993 76.8057C248.109 72.0592 243.938 67.1692 239.479 62.1354C239.374 62.0126 239.268 61.8898 239.162 61.7672L206.808 66.9082L204.198 96.9104C205.535 98.4935 206.796 100.062 207.98 101.617C212.726 107.514 217.042 113.051 220.925 118.229C217.042 123.839 212.655 129.664 207.764 135.705C202.874 141.746 197.193 148.002 190.721 154.475C180.796 163.968 169.937 171.95 158.142 178.423C147.395 184.321 135.632 187.531 122.853 188.055ZM426.438 230.021C427.919 229.466 429.388 228.879 430.846 228.261C445.23 222.076 457.815 213.59 468.603 202.802C479.39 191.871 487.804 179.214 493.845 164.831C500.03 150.304 503.122 134.77 503.122 118.229C503.122 96.8007 498.01 77.3072 487.785 59.7477L476.444 87.6896C476.25 88.1663 475.731 88.4128 475.247 88.2765C475.042 88.4336 474.776 88.5113 474.499 88.472L444.763 84.2447C450.875 94.4616 453.932 105.79 453.932 118.229C453.932 131.174 450.768 142.968 444.439 153.612C438.254 164.112 429.912 172.525 419.412 178.854C415.834 180.991 412.119 182.759 408.266 184.157L398.877 212.632L426.438 230.021ZM486.506 57.5807C476.071 40.1212 462.049 26.2494 444.439 15.9653C426.604 5.32172 406.755 -1.43051e-05 384.893 -1.43051e-05C361.161 -1.43051e-05 340.377 4.89024 322.542 14.6708C319.327 16.448 316.205 18.2633 313.176 20.1165L341.746 33.0697C342.215 33.2821 342.44 33.8109 342.285 34.2889C342.434 34.5006 342.5 34.7695 342.45 35.0441L337.316 63.052C343.587 59.1767 350.241 56.0664 357.277 53.721C365.907 50.7005 375.112 49.1903 384.893 49.1903C397.55 49.1903 409.057 52.3546 419.412 58.6832C429.347 64.5354 437.35 72.3192 443.422 82.0341L474.772 86.4907L486.506 57.5807Z" fill="#2C2C2C"/>
</mask>
<g mask="url(#mask0_12_95)">
<rect width="787.908" height="268.513" transform="translate(-142 -16)" fill="url(#paint0_linear_12_95)"/>
</g>
<defs>
<linearGradient id="paint0_linear_12_95" x1="787.908" y1="134.256" x2="0" y2="134.256" gradientUnits="userSpaceOnUse">
<stop stop-color="#AFEE89"/>
<stop offset="0.0981687" stop-color="#E1DD6C"/>
<stop offset="0.19" stop-color="#FBD45D"/>
<stop offset="0.27" stop-color="#FDA549"/>
<stop offset="0.365" stop-color="#FF7C37"/>
<stop offset="0.46" stop-color="#EC5C3E"/>
<stop offset="0.56" stop-color="#DC4242"/>
<stop offset="0.67" stop-color="#DA528F"/>
<stop offset="0.79" stop-color="#D761D9"/>
<stop offset="0.895" stop-color="#B35CE2"/>
<stop offset="1" stop-color="#474EFB"/>
</linearGradient>
</defs>
</svg>
