<svg width="306" height="306" viewBox="0 0 306 306" fill="none" xmlns="http://www.w3.org/2000/svg">
<g clip-path="url(#clip0_25_26)">
<path d="M153 95.625C121.384 95.625 95.625 121.384 95.625 153C95.625 184.616 121.384 210.375 153 210.375C184.616 210.375 210.375 184.616 210.375 153C210.375 121.384 184.616 95.625 153 95.625ZM300.262 143.736L243.664 115.467L263.686 55.4625C266.375 47.3344 258.666 39.6246 250.597 42.3738L190.593 62.3953L162.264 5.7375C158.439 -1.9125 147.561 -1.9125 143.736 5.7375L115.467 62.3355L55.4027 42.3141C47.2746 39.6246 39.5648 47.3344 42.3141 55.4027L62.3355 115.407L5.7375 143.736C-1.9125 147.561 -1.9125 158.439 5.7375 162.264L62.3355 190.533L42.3141 250.597C39.6246 258.725 47.3344 266.435 55.4027 263.686L115.407 243.664L143.677 300.262C147.502 307.912 158.379 307.912 162.204 300.262L190.473 243.664L250.478 263.686C258.606 266.375 266.316 258.666 263.566 250.597L243.545 190.593L300.143 162.323C307.912 158.439 307.912 147.561 300.262 143.736ZM207.088 207.088C177.265 236.911 128.735 236.911 98.9121 207.088C69.0891 177.265 69.0891 128.735 98.9121 98.9121C128.735 69.0891 177.265 69.0891 207.088 98.9121C236.911 128.735 236.911 177.265 207.088 207.088Z" fill="#F8D624"/>
</g>
<defs>
<clipPath id="clip0_25_26">
<rect width="306" height="306" fill="white"/>
</clipPath>
</defs>
</svg>
